<?xml version="1.0" encoding="UTF-8"?>
<svg xmlns="http://www.w3.org/2000/svg" xmlns:xlink="http://www.w3.org/1999/xlink" width="28px" height="28px" viewBox="0 0 36 23" version="1.1">
<g id="surface1">
<path style=" stroke:none;fill-rule:nonzero;fill:rgb(83.137255%,83.529412%,85.882353%);fill-opacity:1;" d="M 1.785156 2.714844 L 34.210938 2.714844 L 34.210938 21.335938 L 1.785156 21.335938 Z M 1.785156 2.714844 "/>
<path style=" stroke:none;fill-rule:nonzero;fill:rgb(87.843137%,89.803922%,90.980392%);fill-opacity:1;" d="M 35.996094 23 L 0 23 L 18 10.921875 Z M 35.996094 23 "/>
<path style=" stroke:none;fill-rule:nonzero;fill:rgb(48.235294%,10.980392%,85.098039%);fill-opacity:1;" d="M 36 0.835938 L 36 22.164062 C 36 22.628906 35.566406 23 35.039062 23 L 32.429688 23 L 32.429688 0 L 35.039062 0 C 35.28125 0 35.519531 0.0820312 35.703125 0.234375 C 35.886719 0.386719 36 0.601562 36 0.835938 Z M 36 0.835938 "/>
<path style=" stroke:none;fill-rule:nonzero;fill:rgb(48.235294%,10.980392%,85.098039%);fill-opacity:1;" d="M 35.703125 0.234375 L 32.429688 2.847656 L 19.019531 13.542969 C 18.457031 14.035156 17.546875 14.035156 16.984375 13.542969 L 3.566406 2.84375 L 0.292969 0.234375 C 0.480469 0.0820312 0.71875 0 0.960938 0 L 35.039062 0 C 35.28125 0 35.519531 0.0820312 35.703125 0.234375 Z M 35.703125 0.234375 "/>
<path style=" stroke:none;fill-rule:nonzero;fill:rgb(92.156863%,93.72549%,94.901961%);fill-opacity:1;" d="M 3.875 0 L 32.121094 0 L 19.035156 10.539062 C 18.46875 11.050781 17.53125 11.050781 16.964844 10.539062 Z M 3.875 0 "/>
<path style=" stroke:none;fill-rule:nonzero;fill:rgb(48.235294%,10.980392%,85.098039%);fill-opacity:1;" d="M 3.566406 0 L 3.566406 23 L 0.960938 23 C 0.429688 23 0 22.628906 0 22.164062 L 0 0.835938 C 0 0.601562 0.113281 0.386719 0.292969 0.234375 C 0.480469 0.0820312 0.71875 0 0.960938 0 Z M 3.566406 0 "/>
</g>
</svg>
