<?xml version="1.0" encoding="UTF-8"?>
<svg xmlns="http://www.w3.org/2000/svg" xmlns:xlink="http://www.w3.org/1999/xlink" width="28px" height="28px" viewBox="0 0 36 30" version="1.1">
<g id="surface1">
<path style=" stroke:none;fill-rule:nonzero;fill:rgb(48.235294%,10.980392%,85.098039%);fill-opacity:1;" d="M 32.984375 0 C 34.417969 0 35.585938 0.96875 35.585938 2.164062 L 35.585938 27.835938 C 35.585938 29.03125 34.417969 30 32.984375 30 L 3.003906 30 C 1.574219 30 0.410156 29.03125 0.410156 27.835938 L 0.410156 2.164062 C 0.410156 0.96875 1.574219 0 3.003906 0 Z M 30.386719 25.5625 L 30.386719 17.710938 C 30.386719 13.855469 29.410156 10.890625 24.128906 10.890625 C 21.589844 10.890625 19.886719 12.078125 19.191406 13.203125 L 19.121094 13.203125 L 19.121094 11.246094 L 14.117188 11.246094 L 14.117188 25.5625 L 19.328125 25.5625 L 19.328125 18.480469 C 19.328125 16.613281 19.742188 14.804688 22.457031 14.804688 C 25.136719 14.804688 25.167969 16.941406 25.167969 18.601562 L 25.167969 25.5625 Z M 10.84375 11.246094 L 5.621094 11.246094 L 5.621094 25.5625 L 10.84375 25.5625 Z M 8.234375 4.128906 C 6.558594 4.128906 5.207031 5.285156 5.207031 6.710938 C 5.207031 8.132812 6.558594 9.289062 8.234375 9.289062 C 9.902344 9.289062 11.257812 8.132812 11.257812 6.710938 C 11.257812 5.285156 9.902344 4.128906 8.234375 4.128906 Z M 8.234375 4.128906 "/>
</g>
</svg>
