<?xml version="1.0" encoding="UTF-8"?>
<svg xmlns="http://www.w3.org/2000/svg" xmlns:xlink="http://www.w3.org/1999/xlink" width="28px" height="28px" viewBox="0 0 36 39" version="1.1">
<g id="surface1">
<path style=" stroke:none;fill-rule:nonzero;fill:rgb(48.235294%,10.980392%,85.098039%);fill-opacity:1;" d="M 24.351562 39.003906 L 0 34.738281 L 0 4.269531 L 24.351562 0 Z M 24.351562 39.003906 "/>
<path style=" stroke:none;fill-rule:nonzero;fill:rgb(100%,100%,100%);fill-opacity:1;" d="M 12.121094 25.09375 C 8.695312 25.09375 6.398438 22.15625 6.398438 19.148438 C 6.398438 16.082031 8.804688 13.199219 12.171875 13.199219 C 15.558594 13.199219 17.863281 16.214844 17.863281 19.179688 C 17.863281 22.3125 15.425781 25.09375 12.121094 25.09375 Z M 8.714844 19.148438 C 8.714844 21.238281 10.027344 23.078125 12.140625 23.078125 C 14.253906 23.078125 15.5625 21.1875 15.5625 19.148438 C 15.5625 17.199219 14.335938 15.230469 12.140625 15.230469 C 9.96875 15.230469 8.714844 17.128906 8.714844 19.148438 Z M 8.714844 19.148438 "/>
<path style=" stroke:none;fill-rule:nonzero;fill:rgb(48.235294%,10.980392%,85.098039%);fill-opacity:1;" d="M 36 10.105469 L 25.554688 10.105469 L 25.554688 21.261719 L 36 12.5 Z M 36 10.105469 "/>
<path style=" stroke:none;fill-rule:nonzero;fill:rgb(48.235294%,10.980392%,85.098039%);fill-opacity:1;" d="M 25.554688 22.636719 L 25.554688 28.898438 L 36 28.898438 L 36 13.875 C 33.882812 15.652344 25.554688 22.636719 25.554688 22.636719 Z M 25.554688 22.636719 "/>
</g>
</svg>
